<svg width="168" height="66" viewBox="0 0 168 66" fill="none" xmlns="http://www.w3.org/2000/svg">
<path fill-rule="evenodd" clip-rule="evenodd" d="M145.283 58.9792C158.324 56.5705 167.712 49.8374 167.712 41.908C167.712 31.9567 152.927 23.8896 134.689 23.8896C132.188 23.8896 129.753 24.0412 127.412 24.3285C122.58 10.4739 100.265 0 73.4665 0C43.1381 0 18.5521 13.415 18.5521 29.9632C18.5521 30.8157 18.6173 31.6599 18.7453 32.4944C7.93518 34.13 0 39.5379 0 45.9571C0 52.5629 8.40343 58.0978 19.6955 59.5528C31.9568 63.4037 55.0996 66 81.6295 66C109.456 66 133.557 63.1436 145.283 58.9792Z" fill="white"/>
</svg>
