<svg width="254" height="108" viewBox="0 0 254 108" fill="none" xmlns="http://www.w3.org/2000/svg">
<rect y="57.8678" width="9" height="13.7521" rx="3" fill="#FF3939"/>
<path d="M0 69.0413H7V71.1983C7 72.8552 5.65685 74.1983 4 74.1983H3C1.34315 74.1983 0 72.8552 0 71.1983V69.0413Z" fill="#F5F4F2"/>
<path fill-rule="evenodd" clip-rule="evenodd" d="M34 2C17.4315 2 4 15.4315 4 32V69.1074C4 82.3623 14.7452 93.1074 28 93.1074H38C38 83.6136 46.9543 75.9174 58 75.9174C69.0457 75.9174 78 83.6136 78 93.1074H178C178 83.6136 186.954 75.9174 198 75.9174C209.046 75.9174 218 83.6136 218 93.1074H236.615C244.559 93.1074 251 86.6669 251 78.722C251 36.3496 216.65 2 174.278 2H34Z" fill="#FDCE2E"/>
<mask id="mask0_1_432" style="mask-type:alpha" maskUnits="userSpaceOnUse" x="4" y="0" width="247" height="108">
<path d="M4 30C4 13.4315 17.4315 0 34 0H171C215.183 0 251 35.8172 251 80V93C251 101.284 244.284 108 236 108H28C14.7452 108 4 97.2548 4 84V30Z" fill="#FDCE2E"/>
</mask>
<g mask="url(#mask0_1_432)">
<rect x="-10" y="23.0496" width="198" height="26.6612" rx="13.3306" fill="#3FC2D2" stroke="#666666" stroke-width="6"/>
<line x1="34.0211" y1="23.7823" x2="34.0211" y2="48.2782" stroke="#666666" stroke-width="6"/>
<line x1="153.2" y1="23.7823" x2="153.2" y2="48.2782" stroke="#666666" stroke-width="6"/>
<line x1="94.1473" y1="24.4904" x2="94.1473" y2="48.9862" stroke="#666666" stroke-width="6"/>
<mask id="mask1_1_432" style="mask-type:alpha" maskUnits="userSpaceOnUse" x="-13" y="20" width="204" height="33">
<rect x="-13" y="20.0496" width="204" height="32.6612" rx="16.3306" fill="white"/>
</mask>
<g mask="url(#mask1_1_432)">
<path d="M-20 52.281L196.5 15.7521H252L182 57.8678H-20V52.281Z" fill="white" fill-opacity="0.4"/>
</g>
<rect x="216" y="23.9091" width="198" height="26.6612" rx="13.3306" fill="#3FC2D2" stroke="#666666" stroke-width="6"/>
<line x1="-17.5" y1="63.2438" x2="142.5" y2="63.2438" stroke="#666666" stroke-width="3" stroke-linecap="round"/>
<path d="M148 68.0083V59.8051H149.172V62.1489H151.516V63.3208H152.688V66.8364H151.516V68.0083H148ZM151.516 66.8364V63.3208H149.172V66.8364H151.516ZM157.375 66.8364V68.0083H155.031V66.8364H153.859V63.3208H155.031V62.1489H157.375V63.3208H158.547V65.6645H155.031V66.8364H157.375ZM155.031 63.3208V64.4926H157.375V63.3208H155.031ZM163.234 66.8364V68.0083H160.891V66.8364H159.719V63.3208H160.891V62.1489H163.234V63.3208H164.406V65.6645H160.891V66.8364H163.234ZM160.891 63.3208V64.4926H163.234V63.3208H160.891ZM169.094 62.1489V63.3208H170.266V66.8364H169.094V68.0083H166.75V70.352H165.578V62.1489H166.75H169.094ZM166.75 63.3208V66.8364H169.094V63.3208H166.75ZM174.953 68.0083V59.8051H176.125V62.1489H178.469V63.3208H179.641V66.8364H178.469V68.0083H174.953ZM178.469 66.8364V63.3208H176.125V66.8364H178.469ZM184.328 66.8364V68.0083H181.984V66.8364H180.812V63.3208H181.984V62.1489H184.328V63.3208H185.5V65.6645H181.984V66.8364H184.328ZM181.984 63.3208V64.4926H184.328V63.3208H181.984ZM190.188 66.8364V68.0083H187.844V66.8364H186.672V63.3208H187.844V62.1489H190.188V63.3208H191.359V65.6645H187.844V66.8364H190.188ZM187.844 63.3208V64.4926H190.188V63.3208H187.844ZM196.047 62.1489V63.3208H197.219V66.8364H196.047V68.0083H193.703V70.352H192.531V62.1489H193.703H196.047ZM193.703 63.3208V66.8364H196.047V63.3208H193.703Z" fill="#666666"/>
</g>
<rect x="247" y="62.1653" width="7" height="14.6116" rx="3" fill="#F5F4F2"/>
<rect x="9" y="84.5124" width="32" height="8.59504" rx="3" fill="#C4C4C4"/>
<rect x="75" y="84.5124" width="105" height="8.59504" rx="3" fill="#C4C4C4"/>
<rect x="216" y="84.5124" width="35" height="8.59504" rx="3" fill="#C4C4C4"/>
</svg>
