<svg width="66" height="65" viewBox="0 0 66 65" fill="none" xmlns="http://www.w3.org/2000/svg">
<circle cx="32.5" cy="32.5" r="32.5" fill="#FDCE2E"/>
<path d="M24.2778 16.0982L20.6933 17.0587L21.6538 20.6432L25.2383 19.6827L24.2778 16.0982ZM35.0313 13.2168L31.4468 14.1773L32.4073 17.7618L35.9918 16.8013L35.0313 13.2168ZM33.3677 21.3463L29.7832 22.3067L30.7437 25.8912L34.3282 24.9308L33.3677 21.3463ZM37.9127 23.9703L34.3282 24.9308L35.2886 28.5152L38.8731 27.5548L37.9127 23.9703ZM35.2886 28.5152L31.7042 29.4757L32.6646 33.0602L36.2491 32.0997L35.2886 28.5152ZM32.6646 33.0602L29.0801 34.0207L30.0406 37.6051L33.6251 36.6447L32.6646 33.0602ZM37.2096 35.6842L33.6251 36.6447L34.5855 40.2292L38.17 39.2687L37.2096 35.6842ZM54.4289 42.5959L29.3375 49.3191L30.2979 52.9036L55.3894 46.1803L54.4289 42.5959ZM57.0529 38.0509L53.4685 39.0114L54.4289 42.5959L58.0134 41.6354L57.0529 38.0509ZM28.3591 45.7394L24.7746 46.6999L25.7351 50.2843L29.3196 49.3239L28.3591 45.7394Z" fill="#666666"/>
</svg>
