<svg width="90" height="27" viewBox="0 0 90 27" fill="none" xmlns="http://www.w3.org/2000/svg">
<path d="M0.24 16.82V0.799998H2.04V16.82C2.04 19.412 2.736 21.44 4.128 22.904C5.52 24.368 7.404 25.1 9.78 25.1C12.156 25.1 14.04 24.368 15.432 22.904C16.824 21.44 17.52 19.412 17.52 16.82V0.799998H19.32V16.82C19.32 19.748 18.432 22.136 16.656 23.984C14.88 25.808 12.588 26.72 9.78 26.72C6.972 26.72 4.68 25.808 2.904 23.984C1.128 22.136 0.24 19.748 0.24 16.82ZM23.6386 26L30.2986 0.799998H38.9386L45.5986 26H43.7986L41.4586 17.18H27.7786L25.4386 26H23.6386ZM28.1386 15.56H41.0986L37.4986 2.42H31.7386L28.1386 15.56ZM47.5758 26L54.4158 13.4L47.9358 0.799998H49.9158L56.0358 12.5H59.8158L65.9358 0.799998H67.9158L61.4358 13.4L68.2758 26H66.2958L59.8158 14.12H56.0358L49.5558 26H47.5758ZM72.7758 26V0.799998H89.5158V2.42H74.5758V12.32H86.8158V13.94H74.5758V24.38H89.5158V26H72.7758Z" fill="black"/>
</svg>
