<svg width="60" height="60" viewBox="0 0 60 60" fill="none" xmlns="http://www.w3.org/2000/svg">
<path d="M53.7203 42.3004V49.8004C53.7231 50.4966 53.5805 51.1858 53.3016 51.8237C53.0226 52.4617 52.6135 53.0343 52.1005 53.505C51.5874 53.9757 50.9817 54.3341 50.3222 54.5571C49.6626 54.7802 48.9637 54.863 48.2703 54.8004C40.5774 53.9645 33.1878 51.3357 26.6953 47.1254C20.6549 43.287 15.5336 38.1658 11.6953 32.1254C7.47024 25.6034 4.8409 18.1779 4.02029 10.4504C3.95782 9.75903 4.03998 9.06227 4.26154 8.40443C4.48311 7.74659 4.83922 7.14209 5.30721 6.62942C5.77519 6.11675 6.3448 5.70714 6.97977 5.42667C7.61473 5.1462 8.30114 5.00102 8.99529 5.00036H16.4953C17.7086 4.98842 18.8848 5.41806 19.8047 6.2092C20.7246 7.00033 21.3255 8.09898 21.4953 9.30036C21.8118 11.7005 22.3989 14.0572 23.2453 16.3254C23.5817 17.2202 23.6544 18.1927 23.4551 19.1276C23.2557 20.0625 22.7924 20.9206 22.1203 21.6004L18.9453 24.7754C22.5042 31.0342 27.6864 36.2165 33.9453 39.7754L37.1203 36.6004C37.8 35.9282 38.6582 35.465 39.5931 35.2656C40.528 35.0662 41.5005 35.139 42.3953 35.4754C44.6635 36.3217 47.0201 36.9088 49.4203 37.2254C50.6347 37.3967 51.7438 38.0084 52.5366 38.9441C53.3295 39.8798 53.7507 41.0743 53.7203 42.3004Z" stroke="#EF4242" stroke-linecap="round" stroke-linejoin="round"/>
</svg>
