<svg width="279" height="279" viewBox="0 0 279 279" fill="none" xmlns="http://www.w3.org/2000/svg">
<path d="M231.939 163.854L231.428 165.329C230.72 165.32 230.058 165.447 229.443 165.708C228.019 166.298 227.022 167.418 226.451 169.066C225.959 170.487 225.884 171.68 226.227 172.646C226.565 173.626 227.187 174.273 228.095 174.588C228.337 174.671 228.566 174.717 228.784 174.725C228.996 174.747 229.216 174.722 229.445 174.649C229.673 174.576 229.869 174.499 230.032 174.42C230.205 174.362 230.404 174.227 230.629 174.017C230.869 173.813 231.053 173.648 231.181 173.523C231.304 173.413 231.486 173.205 231.727 172.899C231.984 172.599 232.161 172.381 232.258 172.245C232.356 172.11 232.536 171.859 232.798 171.492C233.076 171.131 233.261 170.891 233.353 170.77C233.729 170.223 234.063 169.772 234.356 169.416C234.648 169.06 234.999 168.682 235.409 168.282C235.833 167.887 236.242 167.588 236.634 167.385C237.02 167.198 237.467 167.081 237.974 167.037C238.48 166.992 238.998 167.061 239.527 167.244C240.706 167.653 241.547 168.503 242.048 169.794C242.549 171.085 242.517 172.547 241.951 174.18C241.208 176.326 239.931 177.739 238.122 178.416C237.344 178.705 236.529 178.812 235.674 178.736L236.185 177.262C236.772 177.279 237.334 177.169 237.874 176.933C239.135 176.371 240.041 175.296 240.59 173.708C241.025 172.453 241.075 171.379 240.742 170.484C240.423 169.595 239.848 169.007 239.017 168.719C237.973 168.357 236.906 168.775 235.814 169.972C235.44 170.367 234.775 171.237 233.818 172.582C233.407 173.134 233.06 173.573 232.778 173.898C232.506 174.244 232.147 174.62 231.702 175.024C231.273 175.434 230.867 175.725 230.485 175.898C230.099 176.086 229.652 176.202 229.145 176.247C228.634 176.307 228.113 176.245 227.584 176.062C226.329 175.627 225.442 174.719 224.921 173.336C224.411 171.974 224.467 170.394 225.09 168.594C225.876 166.327 227.249 164.855 229.21 164.179C230.089 163.891 230.998 163.783 231.939 163.854Z" fill="black"/>
<path d="M220.672 185.067C222.98 184.612 225.205 185.087 227.345 186.492C229.485 187.897 230.804 189.75 231.304 192.049C231.804 194.349 231.377 196.529 230.025 198.588C228.549 200.835 226.515 202.112 223.921 202.418C222.79 202.537 221.66 202.436 220.53 202.116L221.387 200.812C222.271 201.01 223.157 201.046 224.043 200.92C226.061 200.617 227.653 199.577 228.821 197.798C229.954 196.073 230.31 194.277 229.889 192.412C229.468 190.547 228.334 189.008 226.488 187.796C224.643 186.584 222.78 186.155 220.901 186.51C219.022 186.865 217.516 187.905 216.383 189.63C215.189 191.449 214.896 193.382 215.505 195.428C215.768 196.309 216.202 197.149 216.807 197.948L215.951 199.252C215.154 198.308 214.568 197.262 214.192 196.116C213.34 193.565 213.669 191.14 215.18 188.84C216.532 186.78 218.363 185.523 220.672 185.067Z" fill="black"/>
<path d="M205.116 202.503L216.536 214.824L208.175 222.573L207.196 221.517L214.413 214.828L210.253 210.34L204.356 215.805L203.377 214.749L209.274 209.284L204.95 204.619L197.734 211.308L196.755 210.252L205.116 202.503Z" fill="black"/>
<path d="M190.079 215.248L198.367 229.861L193.775 232.466C191.59 233.706 189.4 234.028 187.205 233.434C185.004 232.861 183.307 231.524 182.115 229.423C180.923 227.321 180.642 225.172 181.272 222.975C181.896 220.8 183.301 219.093 185.486 217.853L190.079 215.248ZM189.432 217.271L186.196 219.106C184.373 220.14 183.211 221.544 182.709 223.319C182.207 225.094 182.462 226.872 183.472 228.653C184.482 230.434 185.878 231.565 187.659 232.045C189.439 232.525 191.241 232.248 193.064 231.214L196.3 229.379L189.432 217.271Z" fill="black"/>
<path d="M171.591 231.439L174.39 241.621L172.886 242.035L170.087 231.853C169.641 230.233 168.872 229.092 167.777 228.431C166.687 227.785 165.409 227.663 163.943 228.066C162.478 228.469 161.441 229.227 160.835 230.339C160.232 231.467 160.153 232.841 160.599 234.461L163.398 244.643L161.894 245.057L159.095 234.875C158.556 232.915 158.702 231.183 159.532 229.677C160.352 228.19 161.695 227.191 163.561 226.677C165.428 226.164 167.101 226.335 168.581 227.189C170.049 228.063 171.052 229.48 171.591 231.439Z" fill="black"/>
<path d="M147.648 230.258L148.356 247.043L146.798 247.109L146.15 231.762L137.038 232.147L136.977 230.708L147.648 230.258Z" fill="black"/>
<path d="M128.923 230.149L126.117 246.713L114.878 244.809L115.118 243.389L124.82 245.033L125.842 238.999L117.915 237.656L118.155 236.236L126.083 237.579L127.145 231.308L117.443 229.665L117.683 228.245L128.923 230.149Z" fill="black"/>
<path d="M96.3107 222.547C96.862 224.835 96.4804 227.077 95.1657 229.274C93.8511 231.47 92.0554 232.866 89.7785 233.462C87.5017 234.057 85.3061 233.722 83.1918 232.456C80.8853 231.076 79.5249 229.096 79.1104 226.517C78.9445 225.393 78.9981 224.259 79.2712 223.118L80.6098 223.919C80.4489 224.811 80.4499 225.697 80.6128 226.578C80.9992 228.58 82.1054 230.128 83.9313 231.221C85.7024 232.281 87.511 232.561 89.3571 232.063C91.2033 231.564 92.6933 230.367 93.8272 228.473C94.961 226.578 95.3115 224.699 94.8786 222.837C94.4458 220.974 93.3438 219.513 91.5727 218.453C89.7056 217.335 87.7626 217.123 85.7438 217.817C84.8743 218.117 84.053 218.586 83.2799 219.223L81.9413 218.422C82.8514 217.587 83.8714 216.958 85.0015 216.534C87.5139 215.576 89.9508 215.804 92.3122 217.217C94.4265 218.482 95.7593 220.259 96.3107 222.547Z" fill="black"/>
<path d="M79.3024 208.897L64.2231 217.532L60.01 213.26L68.854 198.302L69.9494 199.413L67.0303 204.314L73.2656 210.637L78.207 207.786L79.3024 208.897ZM71.9875 211.392L66.2578 205.582L61.8779 213.104L64.4058 215.667L71.9875 211.392Z" fill="black"/>
<path d="M63.8209 191.544L49.5666 200.435L48.741 199.111L61.7735 190.982L56.9468 183.244L58.1686 182.482L63.8209 191.544Z" fill="black"/>
<path d="M54.7074 175.183L38.944 180.993L38.4045 179.529L52.8168 174.217L49.6629 165.66L51.014 165.162L54.7074 175.183Z" fill="black"/>
<path d="M34.9442 147.451L33.7454 147.506L33.6123 144.629L30.7354 144.762L30.6799 143.564L33.5569 143.431L33.4238 140.554L34.6225 140.498L34.7389 143.016L37.1786 141.221L37.8279 142.272L35.3827 143.947L37.9721 145.389L37.4226 146.495L34.8277 144.933L34.9442 147.451Z" fill="black"/>
<path d="M34.8506 131.735L33.6572 131.609L33.9576 128.745L31.0934 128.445L31.2185 127.251L34.0828 127.552L34.3833 124.687L35.5767 124.813L35.3138 127.319L37.9954 125.911L38.4794 127.048L35.8104 128.336L38.1539 130.151L37.4445 131.162L35.1135 129.228L34.8506 131.735Z" fill="black"/>
<path d="M48.5378 105.948L49.177 104.525C49.8818 104.596 50.5522 104.529 51.1882 104.324C52.6587 103.862 53.7512 102.835 54.4658 101.244C55.082 99.8724 55.2621 98.6904 55.0061 97.6984C54.7567 96.6919 54.1941 95.9919 53.3184 95.5985C53.0848 95.4936 52.8601 95.4278 52.6441 95.4009C52.4347 95.3595 52.2129 95.3651 51.9788 95.4178C51.7447 95.4705 51.543 95.529 51.3738 95.5933C51.1965 95.6365 50.9865 95.7526 50.7437 95.9417C50.4863 96.1243 50.2883 96.2721 50.1498 96.3853C50.0178 96.4839 49.818 96.6748 49.5505 96.958C49.2684 97.2347 49.0726 97.4362 48.9633 97.5625C48.8539 97.6888 48.6524 97.9227 48.3586 98.2644C48.0502 98.5994 47.8447 98.8228 47.7419 98.9345C47.3191 99.4462 46.9462 99.8663 46.6233 100.195C46.3003 100.523 45.9172 100.869 45.4738 101.231C45.0159 101.586 44.5828 101.848 44.1743 102.015C43.7725 102.168 43.3173 102.244 42.8088 102.244C42.3003 102.243 41.7907 102.128 41.2798 101.899C40.1414 101.388 39.3799 100.467 38.9952 99.1364C38.6106 97.806 38.7723 96.3526 39.4803 94.7763C40.4112 92.7038 41.8078 91.4105 43.6699 90.8963C44.4701 90.6769 45.2922 90.6428 46.1364 90.794L45.4972 92.217C44.9143 92.1481 44.3438 92.2076 43.7859 92.3955C42.4796 92.8436 41.4822 93.8339 40.7939 95.3664C40.2497 96.5778 40.1042 97.6437 40.3572 98.5642C40.5957 99.4782 41.1163 100.115 41.919 100.476C42.9261 100.928 44.0264 100.607 45.2199 99.5118C45.6274 99.1512 46.3674 98.3434 47.4397 97.0886C47.8982 96.5754 48.2824 96.1692 48.5922 95.8699C48.894 95.5494 49.2845 95.2073 49.7635 94.8437C50.228 94.4735 50.6579 94.2193 51.0532 94.0812C51.4551 93.9284 51.9102 93.8523 52.4187 93.8526C52.9338 93.8384 53.4467 93.946 53.9576 94.1755C55.169 94.7196 55.9725 95.7032 56.3681 97.1263C56.7558 98.5282 56.5595 100.098 55.7793 101.834C54.796 104.024 53.2977 105.368 51.2845 105.867C50.3837 106.076 49.4681 106.103 48.5378 105.948Z" fill="black"/>
<path d="M61.6409 85.818C59.3007 86.0669 57.1272 85.3966 55.1204 83.8072C53.1135 82.2178 51.9632 80.2557 51.6694 77.9207C51.3755 75.5858 51.9935 73.4525 53.5233 71.5209C55.1921 69.4137 57.332 68.3225 59.9429 68.2472C61.0798 68.2291 62.1965 68.4298 63.293 68.8492L62.3245 70.0721C61.461 69.7965 60.5821 69.6821 59.6878 69.729C57.6519 69.8514 55.9733 70.7468 54.6521 72.4149C53.3707 74.033 52.8571 75.7897 53.1113 77.685C53.3654 79.5804 54.358 81.2135 56.0889 82.5843C57.8198 83.9551 59.6369 84.5472 61.54 84.3604C63.4432 84.1737 65.0355 83.2713 66.317 81.6533C67.6679 79.9474 68.1309 78.0486 67.7058 75.9566C67.5215 75.0555 67.1636 74.1802 66.6322 73.3307L67.6007 72.1077C68.3103 73.1188 68.8017 74.2121 69.0749 75.3877C69.6974 78.0034 69.1544 80.3899 67.4458 82.5473C65.916 84.4789 63.9811 85.5691 61.6409 85.818Z" fill="black"/>
<path d="M78.6824 69.8311L68.3994 56.5457L77.4145 49.568L78.2959 50.7067L70.5145 56.7296L74.2604 61.5693L80.6184 56.6482L81.4998 57.7869L75.1418 62.708L79.0346 67.7375L86.8161 61.7146L87.6974 62.8534L78.6824 69.8311Z" fill="black"/>
<path d="M94.7899 58.4684L87.8296 43.178L92.6351 40.9905C94.9214 39.9498 97.1313 39.8228 99.265 40.6095C101.407 41.375 102.978 42.8572 103.979 45.0561C104.98 47.255 105.069 49.4206 104.247 51.553C103.432 53.6641 101.882 55.2401 99.5954 56.2808L94.7899 58.4684ZM95.6131 56.5114L98.9988 54.9702C100.906 54.1019 102.189 52.8061 102.846 51.083C103.503 49.3599 103.408 47.5664 102.559 45.7024C101.711 43.8384 100.421 42.5885 98.6897 41.9525C96.9587 41.3165 95.1393 41.4327 93.2317 42.3011L89.846 43.8423L95.6131 56.5114Z" fill="black"/>
<path d="M114.64 43.9807L112.755 33.5904L114.29 33.3118L116.175 43.7021C116.475 45.3551 117.141 46.5596 118.173 47.3156C119.201 48.0558 120.463 48.2902 121.959 48.0188C123.455 47.7474 124.554 47.0845 125.257 46.03C125.957 44.9598 126.157 43.5982 125.857 41.9452L123.972 31.5549L125.507 31.2763L127.392 41.6666C127.755 43.666 127.456 45.3789 126.495 46.8053C125.547 48.2132 124.121 49.09 122.216 49.4357C120.311 49.7813 118.66 49.4631 117.262 48.4809C115.877 47.4801 115.003 45.98 114.64 43.9807Z" fill="black"/>
<path d="M138.384 47.2801L139.167 30.4983L140.725 30.571L140.009 45.9143L149.119 46.3393L149.052 47.7777L138.384 47.2801Z" fill="black"/>
<path d="M157.025 49.0486L161.288 32.7985L172.315 35.6916L171.95 37.0845L162.432 34.5873L160.879 40.5069L168.655 42.5473L168.29 43.9402L160.513 41.8998L158.899 48.0516L168.417 50.5488L168.052 51.9416L157.025 49.0486Z" fill="black"/>
<path d="M188.835 59.5123C188.489 57.1845 189.068 54.9849 190.572 52.9135C192.077 50.842 193.989 49.6108 196.31 49.2198C198.63 48.8287 200.787 49.3571 202.781 50.8049C204.956 52.3844 206.136 54.4768 206.32 57.0823C206.386 58.2174 206.232 59.3415 205.858 60.4546L204.596 59.538C204.835 58.6638 204.913 57.7809 204.829 56.8893C204.622 54.8602 203.657 53.2205 201.935 51.9701C200.265 50.7573 198.488 50.3175 196.605 50.6506C194.722 50.9836 193.132 52.0435 191.835 53.8301C190.537 55.6167 190.022 57.4569 190.288 59.3506C190.554 61.2444 191.522 62.7976 193.192 64.0104C194.952 65.289 196.869 65.6723 198.941 65.1603C199.834 64.9385 200.694 64.5444 201.52 63.9779L202.783 64.8946C201.802 65.6458 200.73 66.1824 199.567 66.5044C196.98 67.2356 194.572 66.7926 192.346 65.1756C190.352 63.7278 189.182 61.84 188.835 59.5123Z" fill="black"/>
<path d="M204.567 74.6165L220.352 67.3521L224.17 71.9809L214.035 86.0957L213.042 84.8922L216.384 80.2691L210.734 73.4185L205.559 75.8199L204.567 74.6165ZM212.074 72.78L217.266 79.0751L222.295 71.9714L220.005 69.1941L212.074 72.78Z" fill="black"/>
<path d="M218.449 93.2743L233.435 85.6818L234.14 87.0734L220.438 94.0151L224.56 102.151L223.276 102.801L218.449 93.2743Z" fill="black"/>
<path d="M226.075 110.378L242.292 105.989L242.699 107.495L227.873 111.508L230.256 120.311L228.866 120.687L226.075 110.378Z" fill="black"/>
<path d="M242.532 126.301L243.728 126.197L243.977 129.066L246.846 128.817L246.95 130.012L244.081 130.262L244.33 133.131L243.135 133.235L242.917 130.724L240.552 132.616L239.86 131.592L242.236 129.82L239.59 128.484L240.095 127.356L242.751 128.811L242.532 126.301Z" fill="black"/>
<path d="M243.261 142L244.459 142.077L244.274 144.951L247.148 145.136L247.071 146.333L244.197 146.149L244.013 149.023L242.815 148.946L242.977 146.431L240.354 147.946L239.825 146.83L242.439 145.435L240.024 143.717L240.692 142.677L243.1 144.515L243.261 142Z" fill="black"/>
<path d="M163.72 151.3V158.8C163.723 159.497 163.58 160.186 163.302 160.824C163.023 161.462 162.614 162.034 162.1 162.505C161.587 162.976 160.982 163.334 160.322 163.557C159.663 163.78 158.964 163.863 158.27 163.8C150.577 162.964 143.188 160.336 136.695 156.125C130.655 152.287 125.534 147.166 121.695 141.125C117.47 134.603 114.841 127.178 114.02 119.45C113.958 118.759 114.04 118.062 114.262 117.404C114.483 116.747 114.839 116.142 115.307 115.629C115.775 115.117 116.345 114.707 116.98 114.427C117.615 114.146 118.301 114.001 118.995 114H126.495C127.709 113.988 128.885 114.418 129.805 115.209C130.725 116 131.325 117.099 131.495 118.3C131.812 120.701 132.399 123.057 133.245 125.325C133.582 126.22 133.654 127.193 133.455 128.128C133.256 129.062 132.792 129.921 132.12 130.6L128.945 133.775C132.504 140.034 137.686 145.216 143.945 148.775L147.12 145.6C147.8 144.928 148.658 144.465 149.593 144.266C150.528 144.066 151.5 144.139 152.395 144.475C154.663 145.322 157.02 145.909 159.42 146.225C160.635 146.397 161.744 147.008 162.537 147.944C163.329 148.88 163.751 150.074 163.72 151.3Z" stroke="#EF4242" stroke-linecap="round" stroke-linejoin="round"/>
</svg>
