<svg width="183" height="128" viewBox="0 0 183 128" fill="none" xmlns="http://www.w3.org/2000/svg">
    <path d="M72.9047 113.2H73.8847L75.7747 122.16H76.2647L78.2247 113.2H79.9047L81.8647 122.16H82.3547L84.2447 113.2H85.2247L83.0547 123H81.1647L79.2747 114.04H78.8547L76.9647 123H75.0747L72.9047 113.2ZM87.9262 121.81C86.9648 120.83 86.4842 119.593 86.4842 118.1C86.4842 116.607 86.9648 115.37 87.9262 114.39C88.8875 113.41 90.0868 112.92 91.5242 112.92C92.9615 112.92 94.1608 113.41 95.1222 114.39C96.0835 115.37 96.5642 116.607 96.5642 118.1C96.5642 119.593 96.0835 120.83 95.1222 121.81C94.1608 122.79 92.9615 123.28 91.5242 123.28C90.0868 123.28 88.8875 122.79 87.9262 121.81ZM88.5562 114.964C87.7815 115.767 87.3942 116.812 87.3942 118.1C87.3942 119.388 87.7815 120.433 88.5562 121.236C89.3308 122.039 90.3202 122.44 91.5242 122.44C92.7282 122.44 93.7175 122.039 94.4922 121.236C95.2668 120.433 95.6542 119.388 95.6542 118.1C95.6542 116.812 95.2668 115.767 94.4922 114.964C93.7175 114.161 92.7282 113.76 91.5242 113.76C90.3202 113.76 89.3308 114.161 88.5562 114.964ZM98.3886 123V116H99.2286V117.33H99.2426C99.3639 117.069 99.5272 116.835 99.7326 116.63C100.199 116.163 100.801 115.93 101.539 115.93H102.309V116.7H101.539C100.867 116.7 100.311 116.929 99.8726 117.386C99.4432 117.834 99.2286 118.422 99.2286 119.15V123H98.3886ZM103.57 123V113.2H104.41V118.94H106.09L108.4 116H109.38L106.79 119.36L109.59 123H108.61L106.09 119.71H104.41V123H103.57Z" fill="black"/>
    <rect x="92" y="43" width="1" height="50.5121" fill="#EF4242"/>
    <rect x="112" y="61.8181" width="0.990433" height="40" transform="rotate(90 112 61.8181)" fill="#EF4242"/>
    <rect width="0.995228" height="39.8091" transform="matrix(0.710497 0.7037 -0.710497 0.7037 106.142 48.8018)" fill="#EF4242"/>
    <rect width="0.995228" height="39.8091" transform="matrix(-0.710497 0.7037 -0.710497 -0.7037 106.849 76.1152)" fill="#EF4242"/>
    <path d="M88 89.5503L92.4926 94L96.9853 89.5503" stroke="#EF4242"/>
    <path d="M11.3948 84.6845L11.5064 83.7814C11.9114 83.6998 12.2736 83.547 12.5928 83.3231C13.3329 82.8127 13.7654 82.0527 13.8901 81.043C13.9977 80.1723 13.8949 79.4825 13.5816 78.9736C13.2694 78.4554 12.8355 78.1619 12.2797 78.0933C12.1315 78.075 11.9949 78.0769 11.8699 78.0991C11.7461 78.112 11.6234 78.1532 11.5019 78.2229C11.3805 78.2925 11.2781 78.3598 11.1949 78.4247C11.1035 78.4793 11.0064 78.5801 10.9036 78.7273C10.7915 78.8733 10.7066 78.9898 10.6488 79.0767C10.5922 79.1543 10.5137 79.2951 10.4132 79.499C10.3036 79.7017 10.2291 79.8477 10.1899 79.9369C10.1506 80.0261 10.0785 80.1912 9.9735 80.4321C9.85923 80.6719 9.78305 80.8318 9.74496 80.9117C9.59729 81.2696 9.46169 81.5679 9.33816 81.8066C9.21463 82.0452 9.06045 82.3036 8.87562 82.5817C8.68152 82.8587 8.48503 83.0789 8.28615 83.2424C8.08841 83.3967 7.84779 83.5174 7.56428 83.6046C7.28078 83.6919 6.97693 83.7154 6.65273 83.6754C5.93022 83.5861 5.34738 83.2038 4.90419 82.5283C4.46101 81.8529 4.30122 81.0149 4.42483 80.0146C4.58735 78.6992 5.1434 77.7382 6.09297 77.1314C6.50126 76.8715 6.95368 76.7111 7.45023 76.6502L7.33864 77.5533C7.00184 77.6151 6.69409 77.7464 6.41538 77.947C5.76429 78.4215 5.37866 79.145 5.25849 80.1176C5.16349 80.8864 5.26567 81.5056 5.56501 81.9752C5.85509 82.4436 6.25486 82.7093 6.76432 82.7723C7.40346 82.8512 7.96151 82.4829 8.43846 81.6672C8.60362 81.3961 8.87717 80.8186 9.2591 79.9348C9.42644 79.5699 9.57073 79.2773 9.69197 79.0572C9.8051 78.8267 9.96391 78.5689 10.1684 78.2838C10.3636 77.9976 10.5596 77.782 10.7562 77.637C10.9539 77.4827 11.1945 77.362 11.478 77.2748C11.7627 77.1783 12.0671 77.1501 12.3913 77.1901C13.1601 77.2851 13.7772 77.6952 14.2424 78.4204C14.6995 79.1352 14.86 80.0437 14.7238 81.146C14.5521 82.5355 13.9481 83.5423 12.9117 84.1666C12.4456 84.4382 11.9399 84.6108 11.3948 84.6845Z" fill="black"/>
    <path d="M15.4849 69.4288C14.2513 70.0311 12.9261 70.0964 11.5093 69.6244C10.0925 69.1525 9.07112 68.3057 8.44515 67.0839C7.81918 65.8621 7.73331 64.5694 8.18754 63.2057C8.68307 61.7181 9.63912 60.6937 11.0557 60.1326C11.6755 59.8964 12.3277 59.7841 13.0124 59.7957L12.7249 60.6591C12.1966 60.6799 11.6919 60.7921 11.2108 60.9959C10.1189 61.4684 9.37679 62.2935 8.98449 63.4712C8.604 64.6135 8.67211 65.6789 9.18883 66.6676C9.70555 67.6562 10.5749 68.354 11.7969 68.7611C13.0189 69.1681 14.1331 69.131 15.1394 68.6497C16.1457 68.1684 16.8392 67.3566 17.2197 66.2143C17.6208 65.01 17.4966 63.8767 16.847 62.8143C16.5666 62.3569 16.1961 61.9482 15.7356 61.5882L16.0231 60.7248C16.6135 61.1379 17.1006 61.6395 17.4844 62.2297C18.3465 63.54 18.5239 64.9567 18.0166 66.4797C17.5624 67.8434 16.7185 68.8264 15.4849 69.4288Z" fill="black"/>
    <path d="M22.4915 54.8952L14.0189 49.9702L16.0593 46.4602C16.594 45.5403 17.2558 44.9588 18.0449 44.7157C18.8305 44.4599 19.6106 44.5571 20.3853 45.0074C21.047 45.392 21.4928 45.9157 21.723 46.5785C21.9577 47.2331 21.9253 47.9484 21.6255 48.7241L26.2204 48.4802L25.6927 49.388L21.1935 49.6065L19.6808 52.2088L22.9488 54.1085L22.4915 54.8952ZM18.9546 51.7867L20.5376 49.0634C20.9551 48.3452 21.1079 47.7108 20.9963 47.16C20.8812 46.5966 20.5251 46.1413 19.928 45.7942C19.3309 45.4471 18.763 45.3653 18.2245 45.5489C17.6826 45.7197 17.2029 46.1642 16.7855 46.8823L15.2024 49.6056L18.9546 51.7867Z" fill="black"/>
    <path d="M30.2576 40.8892C28.8861 40.9499 27.6448 40.4814 26.5335 39.4838C25.4223 38.4863 24.8231 37.3025 24.7361 35.9324C24.649 34.5624 25.0856 33.3426 26.0457 32.273C27.0059 31.2034 28.1717 30.6383 29.5432 30.5776C30.9146 30.5169 32.156 30.9853 33.2672 31.9829C34.3785 32.9805 34.9776 34.1643 35.0647 35.5343C35.1518 36.9044 34.7152 38.1242 33.755 39.1937C32.7949 40.2633 31.629 40.8285 30.2576 40.8892ZM25.5841 35.8471C25.6639 36.9597 26.183 37.9463 27.1414 38.8067C28.0999 39.6671 29.1365 40.0772 30.2513 40.0369C31.3661 39.9966 32.3256 39.5285 33.1299 38.6326C33.9342 37.7367 34.2965 36.7324 34.2167 35.6197C34.1369 34.507 33.6178 33.5205 32.6593 32.6601C31.7009 31.7997 30.6642 31.3896 29.5495 31.4298C28.4347 31.4701 27.4751 31.9382 26.6708 32.8342C25.8665 33.7301 25.5043 34.7344 25.5841 35.8471Z" fill="black"/>
    <path d="M42.5058 30.3834L36.598 22.5643L37.3241 22.0158L42.7255 29.1646L46.9701 25.9575L47.4765 26.6277L42.5058 30.3834Z" fill="black"/>
    <path d="M53.1815 23.0948L48.6518 14.4045L49.4588 13.9838L53.6002 21.9293L58.3178 19.4704L58.7061 20.2152L53.1815 23.0948Z" fill="black"/>
    <path d="M70.6774 6.50406L70.5169 5.67952L78.2813 4.16861L78.4417 4.99315L75.0062 5.66169L76.7176 14.4567L75.8244 14.6305L74.1129 5.83551L70.6774 6.50406Z" fill="black"/>
    <path d="M88.1472 11.8235C87.1921 10.8373 86.7194 9.59762 86.729 8.10432C86.7385 6.61102 87.2271 5.37745 88.1947 4.40363C89.1623 3.42981 90.3647 2.9475 91.802 2.95671C93.2394 2.96592 94.4355 3.46359 95.3906 4.44973C96.3456 5.43587 96.8183 6.67559 96.8088 8.16889C96.7992 9.6622 96.3106 10.8958 95.343 11.8696C94.3754 12.8434 93.173 13.3257 91.7357 13.3165C90.2984 13.3073 89.1022 12.8096 88.1472 11.8235ZM88.821 4.98166C88.0412 5.77934 87.6472 6.82217 87.6389 8.11015C87.6307 9.39812 88.0113 10.4459 88.7808 11.2535C89.5503 12.0611 90.5371 12.4688 91.7411 12.4765C92.945 12.4842 93.9369 12.0892 94.7167 11.2916C95.4965 10.4939 95.8905 9.45104 95.8988 8.16306C95.907 6.87509 95.5264 5.8273 94.7569 5.01969C93.9874 4.21207 93.0006 3.80441 91.7967 3.7967C90.5927 3.78898 89.6008 4.18397 88.821 4.98166Z" fill="black"/>
    <path d="M112.873 15.9659L115.959 6.66444L122.271 8.75834L122.006 9.55562L116.558 7.74824L115.434 11.1367L119.886 12.6134L119.621 13.4107L115.17 11.9339L114.002 15.4552L119.45 17.2626L119.185 18.0599L112.873 15.9659Z" fill="black"/>
    <path d="M125.063 20.5422L129.746 17.516L129.882 12.0076L130.742 12.4772L130.623 17.5163L131.729 18.12L135.903 15.2947L136.763 15.7643L132.203 18.8576L132.19 24.4331L131.33 23.9635L131.326 18.8573L130.22 18.2536L125.923 21.0118L125.063 20.5422Z" fill="black"/>
    <path d="M137.759 28.2087L143.963 20.6224L147.052 23.1483C147.875 23.8219 148.347 24.5872 148.466 25.4441C148.585 26.3011 148.352 27.0872 147.767 27.8025C147.182 28.5177 146.458 28.9021 145.594 28.9555C144.731 29.0089 143.887 28.6988 143.063 28.0252L140.679 26.0754L138.463 28.7848L137.759 28.2087ZM141.211 25.4252L143.595 27.375C144.238 27.9008 144.863 28.1466 145.47 28.1123C146.083 28.0708 146.613 27.7755 147.062 27.2264C147.512 26.6773 147.693 26.102 147.606 25.5005C147.525 24.8917 147.163 24.3244 146.52 23.7986L144.136 21.8488L141.211 25.4252Z" fill="black"/>
    <path d="M148.812 38.2255L156.27 31.8678L156.86 32.5604L150.042 38.3731L153.493 42.4216L152.854 42.9666L148.812 38.2255Z" fill="black"/>
    <path d="M158.264 48.5804C158.645 47.2616 159.486 46.2352 160.786 45.5014C162.087 44.7675 163.4 44.5784 164.726 44.934C166.052 45.2897 167.068 46.0934 167.774 47.3452C168.481 48.597 168.643 49.8823 168.262 51.2011C167.881 52.52 167.041 53.5463 165.74 54.2802C164.439 55.0141 163.126 55.2032 161.8 54.8475C160.474 54.4919 159.458 53.6882 158.752 52.4364C158.045 51.1846 157.883 49.8993 158.264 48.5804ZM164.536 45.7648C163.456 45.4846 162.355 45.6609 161.234 46.2939C160.112 46.9268 159.392 47.7779 159.073 48.847C158.755 49.9161 158.892 50.975 159.483 52.0236C160.075 53.0722 160.911 53.7366 161.991 54.0168C163.07 54.297 164.171 54.1206 165.293 53.4877C166.414 52.8547 167.135 52.0037 167.453 50.9345C167.771 49.8654 167.635 48.8066 167.043 47.758C166.451 46.7094 165.616 46.045 164.536 45.7648Z" fill="black"/>
    <path d="M164.339 63.5273L173.676 60.5497L174.909 64.4177C175.232 65.4314 175.219 66.3123 174.87 67.0605C174.533 67.8147 173.937 68.3279 173.084 68.6001C172.354 68.8327 171.667 68.8119 171.021 68.5378C170.378 68.2727 169.87 67.7687 169.496 67.0259L166.593 70.5965L166.274 69.5962L169.131 66.1135L168.217 63.2458L164.615 64.3943L164.339 63.5273ZM169.017 62.9906L169.974 65.9916C170.226 66.783 170.594 67.3221 171.078 67.6088C171.573 67.9016 172.149 67.943 172.807 67.7332C173.465 67.5233 173.907 67.1571 174.132 66.6347C174.369 66.1183 174.361 65.4644 174.109 64.673L173.152 61.6719L169.017 62.9906Z" fill="black"/>
    <path d="M168.163 77.9457L177.889 76.744L178.704 83.3438L177.871 83.4468L177.167 77.7501L173.624 78.1879L174.199 82.8425L173.365 82.9455L172.79 78.2909L169.108 78.7458L169.812 84.4425L168.978 84.5455L168.163 77.9457Z" fill="black"/>
</svg>