<svg width="184" height="132" viewBox="0 0 184 132" fill="none" xmlns="http://www.w3.org/2000/svg">
<g filter="url(#filter0_d_2_418)">
<path d="M64.932 120.41H65.842C65.9727 120.802 66.1687 121.143 66.43 121.432C67.0273 122.104 67.8347 122.44 68.852 122.44C69.7293 122.44 70.4013 122.253 70.868 121.88C71.344 121.507 71.582 121.04 71.582 120.48C71.582 120.331 71.5633 120.195 71.526 120.074C71.498 119.953 71.442 119.836 71.358 119.724C71.274 119.612 71.1947 119.519 71.12 119.444C71.0547 119.36 70.9427 119.276 70.784 119.192C70.6253 119.099 70.4993 119.029 70.406 118.982C70.322 118.935 70.1727 118.875 69.958 118.8C69.7433 118.716 69.5893 118.66 69.496 118.632C69.4027 118.604 69.23 118.553 68.978 118.478C68.726 118.394 68.558 118.338 68.474 118.31C68.1007 118.207 67.788 118.109 67.536 118.016C67.284 117.923 67.0087 117.801 66.71 117.652C66.4113 117.493 66.1687 117.325 65.982 117.148C65.8047 116.971 65.6553 116.747 65.534 116.476C65.4127 116.205 65.352 115.907 65.352 115.58C65.352 114.852 65.66 114.227 66.276 113.704C66.892 113.181 67.704 112.92 68.712 112.92C70.0373 112.92 71.0593 113.354 71.778 114.222C72.086 114.595 72.3007 115.025 72.422 115.51H71.512C71.4093 115.183 71.2413 114.894 71.008 114.642C70.4573 114.054 69.692 113.76 68.712 113.76C67.9373 113.76 67.3353 113.937 66.906 114.292C66.4767 114.637 66.262 115.067 66.262 115.58C66.262 116.224 66.696 116.733 67.564 117.106C67.8533 117.237 68.46 117.437 69.384 117.708C69.7667 117.829 70.0747 117.937 70.308 118.03C70.5507 118.114 70.826 118.24 71.134 118.408C71.442 118.567 71.68 118.735 71.848 118.912C72.0253 119.089 72.1747 119.313 72.296 119.584C72.4267 119.855 72.492 120.153 72.492 120.48C72.492 121.255 72.1607 121.917 71.498 122.468C70.8447 123.009 69.9627 123.28 68.852 123.28C67.452 123.28 66.3787 122.804 65.632 121.852C65.3053 121.423 65.072 120.942 64.932 120.41ZM74.4487 123V113.2H81.0987V114.04H75.3587V117.61H80.0487V118.45H75.3587V122.16H81.0987V123H74.4487ZM82.8536 123V116H83.6936V117.33H83.7076C83.829 117.069 83.9923 116.835 84.1976 116.63C84.6643 116.163 85.2663 115.93 86.0036 115.93H86.7736V116.7H86.0036C85.3316 116.7 84.7763 116.929 84.3376 117.386C83.9083 117.834 83.6936 118.422 83.6936 119.15V123H82.8536ZM87.2653 116H88.1753L89.8553 122.23H91.3253L93.0053 116H93.9153L91.9553 123H89.2253L87.2653 116ZM95.3628 114.348C95.2414 114.227 95.1808 114.077 95.1808 113.9C95.1808 113.723 95.2414 113.573 95.3628 113.452C95.4841 113.331 95.6334 113.27 95.8108 113.27C95.9881 113.27 96.1374 113.331 96.2588 113.452C96.3801 113.573 96.4408 113.723 96.4408 113.9C96.4408 114.077 96.3801 114.227 96.2588 114.348C96.1374 114.469 95.9881 114.53 95.8108 114.53C95.6334 114.53 95.4841 114.469 95.3628 114.348ZM95.3908 123V116H96.2308V123H95.3908ZM98.9709 122.104C98.3083 121.404 97.9769 120.536 97.9769 119.5C97.9769 118.464 98.3083 117.601 98.9709 116.91C99.6429 116.21 100.455 115.86 101.407 115.86C102.518 115.86 103.4 116.271 104.053 117.092C104.342 117.447 104.557 117.853 104.697 118.31H103.857C103.726 117.983 103.554 117.703 103.339 117.47C102.854 116.91 102.21 116.63 101.407 116.63C100.698 116.63 100.086 116.905 99.5729 117.456C99.0689 117.997 98.8169 118.679 98.8169 119.5C98.8169 120.321 99.0689 121.007 99.5729 121.558C100.086 122.099 100.698 122.37 101.407 122.37C102.219 122.37 102.882 122.067 103.395 121.46C103.638 121.18 103.815 120.877 103.927 120.55H104.767C104.627 121.026 104.408 121.46 104.109 121.852C103.4 122.711 102.499 123.14 101.407 123.14C100.455 123.14 99.6429 122.795 98.9709 122.104ZM106.969 122.104C106.297 121.413 105.961 120.545 105.961 119.5C105.961 118.455 106.297 117.587 106.969 116.896C107.641 116.205 108.472 115.86 109.461 115.86C110.441 115.86 111.267 116.205 111.939 116.896C112.621 117.577 112.961 118.422 112.961 119.43V119.78H106.801C106.839 120.517 107.109 121.133 107.613 121.628C108.117 122.123 108.733 122.37 109.461 122.37C110.264 122.37 110.922 122.113 111.435 121.6C111.678 121.376 111.86 121.119 111.981 120.83H112.821C112.653 121.269 112.415 121.656 112.107 121.992C111.417 122.757 110.535 123.14 109.461 123.14C108.472 123.14 107.641 122.795 106.969 122.104ZM106.801 119.01H112.051C111.977 118.329 111.697 117.764 111.211 117.316C110.735 116.859 110.152 116.63 109.461 116.63C108.771 116.63 108.183 116.854 107.697 117.302C107.212 117.75 106.913 118.319 106.801 119.01ZM114.149 120.9H115.059C115.18 121.199 115.339 121.446 115.535 121.642C115.983 122.127 116.594 122.37 117.369 122.37C118.004 122.37 118.475 122.258 118.783 122.034C119.1 121.801 119.259 121.493 119.259 121.11C119.259 120.905 119.198 120.727 119.077 120.578C118.956 120.419 118.76 120.289 118.489 120.186C118.228 120.083 117.99 120.004 117.775 119.948C117.57 119.892 117.271 119.822 116.879 119.738C116.422 119.654 116.03 119.547 115.703 119.416C115.386 119.285 115.106 119.08 114.863 118.8C114.62 118.511 114.499 118.161 114.499 117.75C114.499 117.237 114.728 116.793 115.185 116.42C115.652 116.047 116.286 115.86 117.089 115.86C118.097 115.86 118.895 116.201 119.483 116.882C119.735 117.171 119.917 117.507 120.029 117.89H119.119C119.016 117.638 118.881 117.428 118.713 117.26C118.293 116.84 117.752 116.63 117.089 116.63C116.529 116.63 116.095 116.742 115.787 116.966C115.488 117.181 115.339 117.442 115.339 117.75C115.339 117.918 115.386 118.072 115.479 118.212C115.572 118.343 115.684 118.455 115.815 118.548C115.946 118.632 116.128 118.711 116.361 118.786C116.604 118.861 116.814 118.921 116.991 118.968C117.178 119.005 117.42 119.052 117.719 119.108C118.055 119.183 118.349 119.267 118.601 119.36C118.862 119.444 119.11 119.565 119.343 119.724C119.586 119.873 119.772 120.065 119.903 120.298C120.034 120.531 120.099 120.802 120.099 121.11C120.099 121.698 119.861 122.183 119.385 122.566C118.918 122.949 118.246 123.14 117.369 123.14C116.249 123.14 115.381 122.767 114.765 122.02C114.476 121.693 114.27 121.32 114.149 120.9Z" fill="white"/>
</g>
<rect x="93.0139" y="43" width="1" height="50.5121" fill="white"/>
<rect x="113.014" y="61.8182" width="0.990433" height="40" transform="rotate(90 113.014 61.8182)" fill="white"/>
<rect width="0.995228" height="39.8091" transform="matrix(0.710497 0.7037 -0.710497 0.7037 107.156 48.8018)" fill="white"/>
<rect width="0.995228" height="39.8091" transform="matrix(-0.710497 0.7037 -0.710497 -0.7037 107.863 76.1151)" fill="white"/>
<path d="M89.0139 89.5503L93.5066 94L97.9992 89.5503" stroke="white"/>
<g filter="url(#filter1_d_2_418)">
<path d="M12.4087 84.6845L12.5203 83.7814C12.9253 83.6998 13.2875 83.547 13.6067 83.3231C14.3468 82.8127 14.7793 82.0527 14.9041 81.043C15.0116 80.1723 14.9088 79.4825 14.5955 78.9736C14.2834 78.4554 13.8494 78.1619 13.2936 78.0933C13.1454 78.075 13.0088 78.0769 12.8838 78.0991C12.76 78.112 12.6373 78.1532 12.5159 78.2229C12.3944 78.2925 12.2921 78.3598 12.2088 78.4247C12.1174 78.4793 12.0203 78.5801 11.9175 78.7273C11.8054 78.8733 11.7205 78.9898 11.6627 79.0767C11.6061 79.1543 11.5276 79.2951 11.4272 79.499C11.3175 79.7017 11.243 79.8477 11.2038 79.9369C11.1645 80.0261 11.0924 80.1912 10.9874 80.4321C10.8731 80.6719 10.797 80.8318 10.7589 80.9117C10.6112 81.2696 10.4756 81.5679 10.3521 81.8066C10.2285 82.0452 10.0744 82.3036 9.88953 82.5817C9.69544 82.8587 9.49895 83.0789 9.30007 83.2424C9.10232 83.3967 8.8617 83.5174 8.5782 83.6046C8.2947 83.6919 7.99085 83.7154 7.66664 83.6754C6.94414 83.5861 6.36129 83.2038 5.91811 82.5283C5.47493 81.8529 5.31514 81.0149 5.43874 80.0146C5.60127 78.6992 6.15731 77.7382 7.10689 77.1314C7.51518 76.8715 7.96759 76.7111 8.46414 76.6502L8.35255 77.5533C8.01576 77.6151 7.70801 77.7464 7.4293 77.947C6.77821 78.4215 6.39258 79.145 6.2724 80.1176C6.17741 80.8864 6.27958 81.5056 6.57893 81.9752C6.86901 82.4436 7.26878 82.7093 7.77823 82.7723C8.41737 82.8512 8.97542 82.4829 9.45238 81.6672C9.61754 81.3961 9.89108 80.8186 10.273 79.9348C10.4404 79.5699 10.5846 79.2773 10.7059 79.0572C10.819 78.8267 10.9778 78.5689 11.1823 78.2838C11.3776 77.9976 11.5735 77.782 11.7701 77.637C11.9678 77.4827 12.2084 77.362 12.4919 77.2748C12.7766 77.1783 13.081 77.1501 13.4052 77.1901C14.174 77.2851 14.7911 77.6952 15.2563 78.4204C15.7135 79.1352 15.8739 80.0437 15.7377 81.146C15.566 82.5355 14.962 83.5423 13.9256 84.1666C13.4595 84.4382 12.9538 84.6108 12.4087 84.6845Z" fill="white"/>
<path d="M16.4988 69.4288C15.2652 70.0311 13.94 70.0964 12.5232 69.6244C11.1064 69.1525 10.085 68.3057 9.45907 67.0839C8.8331 65.8621 8.74723 64.5694 9.20146 63.2057C9.69699 61.7181 10.653 60.6937 12.0696 60.1326C12.6894 59.8964 13.3416 59.7841 14.0264 59.7957L13.7388 60.6591C13.2105 60.6799 12.7058 60.7921 12.2248 60.9959C11.1328 61.4684 10.3907 62.2935 9.99841 63.4712C9.61792 64.6135 9.68603 65.6789 10.2027 66.6676C10.7195 67.6562 11.5888 68.354 12.8108 68.7611C14.0328 69.1681 15.147 69.131 16.1533 68.6497C17.1597 68.1684 17.8531 67.3566 18.2336 66.2143C18.6347 65.01 18.5105 63.8767 17.861 62.8143C17.5805 62.3569 17.21 61.9482 16.7495 61.5882L17.0371 60.7248C17.6274 61.1379 18.1145 61.6395 18.4983 62.2297C19.3605 63.54 19.5378 64.9567 19.0305 66.4797C18.5763 67.8434 17.7324 68.8264 16.4988 69.4288Z" fill="white"/>
<path d="M23.5054 54.8952L15.0328 49.9702L17.0732 46.4602C17.6079 45.5403 18.2697 44.9588 19.0588 44.7157C19.8444 44.4599 20.6246 44.5571 21.3992 45.0074C22.0609 45.392 22.5068 45.9157 22.7369 46.5785C22.9717 47.2331 22.9392 47.9484 22.6394 48.7241L27.2343 48.4802L26.7066 49.388L22.2074 49.6065L20.6947 52.2088L23.9627 54.1085L23.5054 54.8952ZM19.9685 51.7867L21.5515 49.0634C21.969 48.3452 22.1219 47.7108 22.0102 47.16C21.8951 46.5966 21.539 46.1413 20.9419 45.7942C20.3448 45.4471 19.7769 45.3653 19.2384 45.5489C18.6965 45.7197 18.2168 46.1642 17.7994 46.8823L16.2164 49.6056L19.9685 51.7867Z" fill="white"/>
<path d="M31.2715 40.8892C29.9001 40.9499 28.6587 40.4814 27.5475 39.4838C26.4362 38.4863 25.8371 37.3025 25.75 35.9324C25.6629 34.5624 26.0995 33.3426 27.0597 32.273C28.0198 31.2034 29.1856 30.6383 30.5571 30.5776C31.9285 30.5169 33.1699 30.9853 34.2811 31.9829C35.3924 32.9805 35.9915 34.1643 36.0786 35.5343C36.1657 36.9044 35.7291 38.1242 34.7689 39.1937C33.8088 40.2633 32.643 40.8285 31.2715 40.8892ZM26.598 35.8471C26.6778 36.9597 27.1969 37.9463 28.1554 38.8067C29.1138 39.6671 30.1504 40.0772 31.2652 40.0369C32.38 39.9966 33.3396 39.5285 34.1439 38.6326C34.9482 37.7367 35.3104 36.7324 35.2306 35.6197C35.1508 34.507 34.6317 33.5205 33.6732 32.6601C32.7148 31.7997 31.6782 31.3896 30.5634 31.4298C29.4486 31.4701 28.489 31.9382 27.6847 32.8342C26.8804 33.7301 26.5182 34.7344 26.598 35.8471Z" fill="white"/>
<path d="M43.5197 30.3834L37.6119 22.5643L38.338 22.0158L43.7394 29.1646L47.9841 25.9575L48.4904 26.6277L43.5197 30.3834Z" fill="white"/>
<path d="M54.1954 23.0948L49.6657 14.4045L50.4727 13.9838L54.6141 21.9293L59.3317 19.4704L59.72 20.2152L54.1954 23.0948Z" fill="white"/>
<path d="M71.6913 6.50406L71.5308 5.67952L79.2952 4.16861L79.4556 4.99315L76.0201 5.66169L77.7316 14.4567L76.8383 14.6305L75.1268 5.83551L71.6913 6.50406Z" fill="white"/>
<path d="M89.1611 11.8235C88.206 10.8373 87.7333 9.59762 87.7429 8.10432C87.7524 6.61102 88.241 5.37745 89.2086 4.40363C90.1762 3.42981 91.3787 2.9475 92.816 2.95671C94.2533 2.96592 95.4494 3.46359 96.4045 4.44973C97.3595 5.43587 97.8322 6.67559 97.8227 8.16889C97.8131 9.6622 97.3245 10.8958 96.3569 11.8696C95.3893 12.8434 94.1869 13.3257 92.7496 13.3165C91.3123 13.3073 90.1161 12.8096 89.1611 11.8235ZM89.8349 4.98166C89.0551 5.77934 88.6611 6.82217 88.6529 8.11015C88.6446 9.39812 89.0252 10.4459 89.7947 11.2535C90.5643 12.0611 91.551 12.4688 92.755 12.4765C93.9589 12.4842 94.9508 12.0892 95.7306 11.2916C96.5104 10.4939 96.9044 9.45104 96.9127 8.16306C96.9209 6.87509 96.5403 5.8273 95.7708 5.01969C95.0013 4.21207 94.0146 3.80441 92.8106 3.7967C91.6066 3.78898 90.6147 4.18397 89.8349 4.98166Z" fill="white"/>
<path d="M113.887 15.9659L116.973 6.66444L123.285 8.75834L123.02 9.55562L117.572 7.74824L116.448 11.1367L120.9 12.6134L120.635 13.4107L116.184 11.9339L115.016 15.4552L120.464 17.2626L120.199 18.0599L113.887 15.9659Z" fill="white"/>
<path d="M126.077 20.5422L130.759 17.516L130.896 12.0076L131.756 12.4772L131.637 17.5163L132.743 18.12L136.917 15.2947L137.777 15.7643L133.217 18.8576L133.204 24.4331L132.344 23.9635L132.34 18.8573L131.234 18.2536L126.937 21.0118L126.077 20.5422Z" fill="white"/>
<path d="M138.773 28.2086L144.977 20.6223L148.066 23.1482C148.889 23.8218 149.361 24.587 149.48 25.444C149.599 26.3009 149.366 27.0871 148.781 27.8023C148.196 28.5176 147.472 28.902 146.608 28.9553C145.745 29.0087 144.901 28.6987 144.077 28.0251L141.693 26.0753L139.477 28.7847L138.773 28.2086ZM142.225 25.425L144.609 27.3748C145.252 27.9007 145.877 28.1465 146.484 28.1122C147.097 28.0707 147.627 27.7754 148.076 27.2263C148.526 26.6772 148.707 26.1019 148.62 25.5003C148.539 24.8916 148.177 24.3243 147.534 23.7985L145.15 21.8487L142.225 25.425Z" fill="white"/>
<path d="M149.826 38.2256L157.284 31.868L157.874 32.5605L151.056 38.3732L154.507 42.4218L153.868 42.9667L149.826 38.2256Z" fill="white"/>
<path d="M159.278 48.5804C159.659 47.2616 160.5 46.2352 161.8 45.5014C163.101 44.7675 164.414 44.5784 165.74 44.934C167.066 45.2897 168.082 46.0934 168.788 47.3452C169.495 48.597 169.657 49.8823 169.276 51.2011C168.895 52.52 168.054 53.5463 166.754 54.2802C165.453 55.0141 164.14 55.2032 162.814 54.8475C161.488 54.4919 160.472 53.6882 159.766 52.4364C159.059 51.1846 158.897 49.8993 159.278 48.5804ZM165.55 45.7648C164.47 45.4846 163.369 45.6609 162.248 46.2939C161.126 46.9268 160.406 47.7779 160.087 48.847C159.769 49.9161 159.906 50.975 160.497 52.0236C161.089 53.0722 161.925 53.7366 163.004 54.0168C164.084 54.297 165.185 54.1206 166.307 53.4877C167.428 52.8547 168.149 52.0037 168.467 50.9345C168.785 49.8654 168.649 48.8066 168.057 47.758C167.465 46.7094 166.629 46.045 165.55 45.7648Z" fill="white"/>
<path d="M165.353 63.5273L174.689 60.5497L175.923 64.4177C176.246 65.4314 176.233 66.3123 175.884 67.0605C175.547 67.8147 174.951 68.3279 174.098 68.6001C173.368 68.8327 172.681 68.8119 172.035 68.5378C171.392 68.2727 170.884 67.7687 170.51 67.0259L167.607 70.5965L167.288 69.5962L170.145 66.1135L169.231 63.2458L165.629 64.3943L165.353 63.5273ZM170.031 62.9906L170.988 65.9916C171.24 66.783 171.608 67.3221 172.092 67.6088C172.587 67.9016 173.163 67.943 173.821 67.7332C174.479 67.5233 174.921 67.1571 175.146 66.6347C175.383 66.1183 175.375 65.4644 175.123 64.673L174.166 61.6719L170.031 62.9906Z" fill="white"/>
<path d="M169.177 77.9457L178.903 76.744L179.718 83.3438L178.885 83.4468L178.181 77.7501L174.638 78.1879L175.213 82.8425L174.379 82.9455L173.804 78.2909L170.122 78.7458L170.826 84.4425L169.992 84.5455L169.177 77.9457Z" fill="white"/>
</g>
<defs>
<filter id="filter0_d_2_418" x="60.932" y="112.92" width="63.1671" height="18.36" filterUnits="userSpaceOnUse" color-interpolation-filters="sRGB">
<feFlood flood-opacity="0" result="BackgroundImageFix"/>
<feColorMatrix in="SourceAlpha" type="matrix" values="0 0 0 0 0 0 0 0 0 0 0 0 0 0 0 0 0 0 127 0" result="hardAlpha"/>
<feOffset dy="4"/>
<feGaussianBlur stdDeviation="2"/>
<feComposite in2="hardAlpha" operator="out"/>
<feColorMatrix type="matrix" values="0 0 0 0 0 0 0 0 0 0 0 0 0 0 0 0 0 0 0.25 0"/>
<feBlend mode="normal" in2="BackgroundImageFix" result="effect1_dropShadow_2_418"/>
<feBlend mode="normal" in="SourceGraphic" in2="effect1_dropShadow_2_418" result="shape"/>
</filter>
<filter id="filter1_d_2_418" x="0.97522" y="2.92444" width="182.743" height="90.1119" filterUnits="userSpaceOnUse" color-interpolation-filters="sRGB">
<feFlood flood-opacity="0" result="BackgroundImageFix"/>
<feColorMatrix in="SourceAlpha" type="matrix" values="0 0 0 0 0 0 0 0 0 0 0 0 0 0 0 0 0 0 127 0" result="hardAlpha"/>
<feOffset dy="4"/>
<feGaussianBlur stdDeviation="2"/>
<feComposite in2="hardAlpha" operator="out"/>
<feColorMatrix type="matrix" values="0 0 0 0 0 0 0 0 0 0 0 0 0 0 0 0 0 0 0.25 0"/>
<feBlend mode="normal" in2="BackgroundImageFix" result="effect1_dropShadow_2_418"/>
<feBlend mode="normal" in="SourceGraphic" in2="effect1_dropShadow_2_418" result="shape"/>
</filter>
</defs>
</svg>
